<svg width="500" height="500" viewBox="0 0 500 500" fill="none" xmlns="http://www.w3.org/2000/svg">
<g clip-path="url(#clip0_101_20)">
<rect width="500" height="500" fill="white"/>
<rect width="500" height="500" fill="#006D4C"/>
<g filter="url(#filter0_i_101_20)">
<path d="M323.375 214.75V147.875C323.375 141.208 322.854 136 321.812 132.25C320.771 128.292 319.104 125.271 316.812 123.188C314.521 121.104 311.292 119.854 307.125 119.438C303.167 118.812 298.271 118.396 292.438 118.188V110.062C296.812 110.271 302.854 110.479 310.562 110.688C318.271 110.688 326.188 110.688 334.312 110.688C342.646 110.688 350.458 110.688 357.75 110.688C365.042 110.479 370.667 110.271 374.625 110.062V118.188C368.583 118.396 363.583 118.812 359.625 119.438C355.667 120.062 352.542 121.417 350.25 123.5C347.75 125.583 346.083 128.604 345.25 132.562C344.417 136.312 344 141.417 344 147.875V301.938C344 309.021 344.417 314.75 345.25 319.125C346.083 323.5 347.646 326.938 349.938 329.438C352.229 331.938 355.354 333.604 359.312 334.438C363.271 335.271 368.375 335.688 374.625 335.688V343.5C370.667 343.292 364.938 343.188 357.438 343.188C350.146 342.979 342.438 342.875 334.312 342.875C326.188 342.875 318.271 342.979 310.562 343.188C302.854 343.188 296.812 343.292 292.438 343.5V335.688C298.896 335.688 304.104 335.167 308.062 334.125C312.021 333.083 315.146 331.312 317.438 328.812C319.729 326.312 321.292 322.979 322.125 318.812C322.958 314.438 323.375 308.812 323.375 301.938V227.875H175.562V301.938C175.562 308.812 175.875 314.438 176.5 318.812C177.125 323.188 178.583 326.625 180.875 329.125C182.958 331.625 185.979 333.396 189.938 334.438C193.896 335.271 199.208 335.688 205.875 335.688V343.5C201.708 343.5 195.875 343.5 188.375 343.5C181.083 343.292 173.375 343.188 165.25 343.188C156.917 343.188 149 343.188 141.5 343.188C134 343.188 128.167 343.292 124 343.5V335.688C136.5 335.688 144.729 333.5 148.688 329.125C152.646 324.542 154.625 315.479 154.625 301.938V148.812C154.625 142.146 154.104 136.833 153.062 132.875C152.229 128.917 150.667 125.896 148.375 123.812C146.083 121.521 142.958 120.062 139 119.438C135.042 118.812 130.042 118.396 124 118.188V110.062C127.958 110.479 133.583 110.792 140.875 111C148.375 111 156.292 111 164.625 111C172.75 111 180.562 111 188.062 111C195.771 110.792 201.708 110.479 205.875 110.062V118.188C199.833 118.396 194.833 118.917 190.875 119.75C186.917 120.375 183.792 121.729 181.5 123.812C179.208 126.104 177.646 129.229 176.812 133.188C175.979 137.146 175.562 142.354 175.562 148.812V214.75H323.375Z" fill="#F5F6F6"/>
</g>
</g>
<defs>
<filter id="filter0_i_101_20" x="124" y="110.062" width="250.625" height="237.438" filterUnits="userSpaceOnUse" color-interpolation-filters="sRGB">
<feFlood flood-opacity="0" result="BackgroundImageFix"/>
<feBlend mode="normal" in="SourceGraphic" in2="BackgroundImageFix" result="shape"/>
<feColorMatrix in="SourceAlpha" type="matrix" values="0 0 0 0 0 0 0 0 0 0 0 0 0 0 0 0 0 0 127 0" result="hardAlpha"/>
<feOffset dy="4"/>
<feGaussianBlur stdDeviation="2"/>
<feComposite in2="hardAlpha" operator="arithmetic" k2="-1" k3="1"/>
<feColorMatrix type="matrix" values="0 0 0 0 0 0 0 0 0 0 0 0 0 0 0 0 0 0 0.25 0"/>
<feBlend mode="normal" in2="shape" result="effect1_innerShadow_101_20"/>
</filter>
<clipPath id="clip0_101_20">
<rect width="500" height="500" fill="white"/>
</clipPath>
</defs>
</svg>
